<svg data-name="mission-logo" xmlns="http://www.w3.org/2000/svg" viewBox="0 0 147.82 64.28"><defs><style>.logo-tagless1{fill:#fff;}.logo-tagless2{fill:#2c347e;}.logo-tagless3{fill:#e93526;}</style></defs><path class="logo-tagless1" d="M46.63,64.28A28.9,28.9,0,0,1,40,63.52c-5.86-1.37-9.79-3.84-11.68-7.35a9.3,9.3,0,0,1-.41-.84H0L5.54,42.81H7.65L9.21,39.3H6.94L13.1,26.14H33.7l-.22,1.3,1-1.3H61.1V25.05l3.51-1.22V18.58l-.53-.51-.48-.45,0-2.58,2.11-.85c.8-4.1,4.33-7.8,8.87-9.16L75,4.9a1.75,1.75,0,0,1-.17-.69,2.07,2.07,0,0,1,.93-2.1l.41-.19A1.76,1.76,0,0,1,77.35.23c.18-.06.45-.13.65-.18l.18,0h.25A1.75,1.75,0,0,1,79.8.66H80a1.75,1.75,0,0,1,1.78,1.61A2.06,2.06,0,0,1,80.5,4.6,13.81,13.81,0,0,1,85,6.07a12.6,12.6,0,0,1,5.81,6.54l1,.44.93.41,0,2.9-.85.68v5.28l3.51,1.23v2.58h14.92l-2.62,5.93a23.08,23.08,0,0,1,4.42-.44,16.51,16.51,0,0,1,6.22,1.08l.3-.66h14.14a18.09,18.09,0,0,1,3.94-.42c4.49,0,6.67,1.89,7.7,3.48a7.42,7.42,0,0,1,.26,7.33l-.25.56h1.82l-5.47,12.33H109.69a22.93,22.93,0,0,1-3.91.39h-.29a16.51,16.51,0,0,1-6-1l-.29.63H82.41a13.79,13.79,0,0,1-3.35.42,14.07,14.07,0,0,1-3.6-.42H65.77a14.28,14.28,0,0,1-3.35.41h-.37a11.22,11.22,0,0,1-2.83,4.69C56.53,63.26,51,64.28,46.63,64.28Z"></path><path class="logo-tagless1" d="M144.27,55.12a3.51,3.51,0,1,1,.09,0Z"></path><path class="logo-tagless2" d="M144.79,51.76v0a.5.5,0,0,0,.4-.44.49.49,0,0,0-.19-.41,1,1,0,0,0-.63-.16,4.51,4.51,0,0,0-.72,0l-.05,1.87.43,0,0-.75h.21c.24,0,.35.1.38.29a1.31,1.31,0,0,0,.14.46l.45,0a2,2,0,0,1-.12-.46C145.06,52,145,51.82,144.79,51.76Zm-.51-.15h-.21l0-.53a1.1,1.1,0,0,1,.24,0c.27,0,.39.12.39.3S144.52,51.61,144.28,51.61Z"></path><path class="logo-tagless2" d="M144.41,49.81a1.89,1.89,0,1,0,1.87,1.93A1.91,1.91,0,0,0,144.41,49.81Zm-.08,3.38a1.5,1.5,0,1,1,1.47-1.45A1.44,1.44,0,0,1,144.33,53.19Z"></path><polygon class="logo-tagless1" points="64.72 27.97 64.72 36.55 79.57 35.27 79.57 23.1 64.72 27.97"></polygon><path class="logo-tagless2" d="M90.43,23.46l-.12-.16V16.35c.18-.2.85-.74.85-.74l0-1.15s-1.07-.47-1.6-.73a11,11,0,0,0-5.31-6.3A13.41,13.41,0,0,0,78.67,6V3.65s.65-.24,1.24-.48c.29-.11.33-.21.28-.76,0-.33-.46-.17-.46-.17l-1.08.39s0-.5,0-.85a.22.22,0,0,0-.29-.23,5.07,5.07,0,0,0-.5.14c-.16.06-.14.31-.14.31V3s-1,.35-1.26.51c-.13.07-.11.4-.1.65a.18.18,0,0,0,.19.19l1.16-.4v2l0,.08A12.61,12.61,0,0,0,75,6.5c-4.38,1.32-7.53,5-7.9,8.74v0l-2,.79V17s.67.63,1,1v6.85L66,25l-3.39,1.18v1.31a12.16,12.16,0,0,0,1.4.69v8.67l16.3-1,12-.47,0-8.65a10.75,10.75,0,0,0,1.4-.7V24.64Z"></path><path class="logo-tagless1" d="M79.33,23.22,65.5,27.71c-.27.08-.63.1-.75.34v8.69l14.81-1.37V23.22ZM77,34.14l-1,.16-8.3,1.88c-.06,0-.19,0-.2-.13l0-5.51a5.08,5.08,0,0,1,3.24-3.69,5.75,5.75,0,0,1,4.37,0A3.37,3.37,0,0,1,76.49,28c1,1.83.44,4,.66,6Z"></path><path class="logo-tagless1" d="M76.32,29.2a2.58,2.58,0,0,0-1.94-1.84,4.55,4.55,0,0,0-3.51,3.15,34.11,34.11,0,0,0,0,4.17l5.5-1.27c0-1.45.06-2.76-.09-4.21"></path><path class="logo-tagless1" d="M90.55,14.69v.39L80.33,11v-.49c3.47,1.32,10.23,4.16,10.23,4.16"></path><path class="logo-tagless1" d="M79.52,11,65.9,16.6a3.67,3.67,0,0,1,0-.38l9.33-3.8c1.43-.6,2.83-1.28,4.28-1.81Z"></path><path class="logo-tagless1" d="M87.28,14.86l-.44-.18v1.41a2.94,2.94,0,0,1,.44.35Z"></path><path class="logo-tagless1" d="M88,15.14,87.66,15v1.84a2.76,2.76,0,0,1,.32.49Z"></path><path class="logo-tagless1" d="M83.63,13.39l-.76-.3v3.28a3.45,3.45,0,0,1,.76-.49Z"></path><path class="logo-tagless1" d="M86.47,14.53l-.56-.23v1.36a2.92,2.92,0,0,1,.56.21Z"></path><path class="logo-tagless1" d="M89.19,15.63,89,15.55v7.52l.21.07Z"></path><path class="logo-tagless1" d="M82.5,12.94l-.83-.32v8.11l.62.19V17.23c0-.09.08-.18.13-.27a.8.8,0,0,1,.08-.16Z"></path><path class="logo-tagless1" d="M88.61,15.39l-.25-.1v7.57l.09,0,.16,0Z"></path><path class="logo-tagless1" d="M89.56,23.22h.18V15.86l-.19-.08Z"></path><path class="logo-tagless1" d="M81.29,12.47l-.86-.34v8.21c.31.12.59.21.87.29Z"></path><path class="logo-tagless1" d="M85.53,14.15,85,14v1.59h.28l.24,0Z"></path><path class="logo-tagless1" d="M84.64,13.8,84,13.54v2.18a4,4,0,0,1,.64-.16Z"></path><path class="logo-tagless1" d="M79.45,12.32,66.93,17.67v7L69,23.9s0-1.34,0-2a12.54,12.54,0,0,1,0-1.94,3.48,3.48,0,0,1,1.49-2.61,5.43,5.43,0,0,1,5.18-1c2.12,1,1.7,3,1.8,4.75a14.19,14.19,0,0,0,2-.67V12.32Z"></path><path class="logo-tagless1" d="M74.77,20.35c-.29-.2-.69-.3-.58-.7a2.82,2.82,0,0,0,1-2.48,3.47,3.47,0,0,0-1.53.67c-1.55.76-1.43,3.27-1.37,5,1.54-.45,3.07-1,4.58-1.51l0-.59a8.07,8.07,0,0,1-2.06-.35"></path><path class="logo-tagless1" d="M85.29,21.82c-.66-.15-1.76-.51-2.55-.73V17.36c0-.15.34-.7.51-.72,2.53.87,2.09,3.22,2,5.18"></path><polygon class="logo-tagless1" points="93.04 25.27 92.78 25.28 80.46 21.56 80.46 21.02 93.04 24.99 93.04 25.27"></polygon><polyline class="logo-tagless1" points="84.99 22.91 92.78 25.28 93.04 25.27 93.04 24.99 80.46 21.02"></polyline><path class="logo-tagless1" d="M72.71,8.81c-.81.73.59,1.3,1.57.46a9.21,9.21,0,0,1,7.1-1.75c-2.71-1-6.51-.67-8.67,1.29"></path><polygon class="logo-tagless1" points="89.8 35.01 89.8 25.96 89.6 25.9 89.6 35.01 89.23 35.01 89.23 25.79 89.03 25.73 89.03 35.01 88.66 35.01 88.66 25.61 88.39 25.53 88.39 35.01 88.02 35.01 88.02 25.42 87.67 25.31 87.67 35.01 87.3 35.01 87.3 25.2 86.85 25.06 86.85 35.01 86.48 35.01 86.48 24.94 85.93 24.78 85.93 35.01 85.56 35.01 85.56 24.66 85.02 24.5 85.02 35.01 84.65 35.01 84.65 24.38 83.99 24.18 83.99 35.01 83.62 35.01 83.62 24.07 82.88 23.84 82.88 35.01 82.5 35.01 82.5 23.73 81.65 23.46 81.65 35.01 81.27 35.01 81.27 23.35 80.47 23.1 80.47 35.27 89.9 35.16 89.9 35.01 89.8 35.01"></polygon><polygon class="logo-tagless1" points="90.37 35.01 90.37 26.14 90.17 26.08 90.17 35.01 90.02 35.01 90.02 35.16 90.52 35.16 90.52 35.01 90.37 35.01"></polygon><polygon class="logo-tagless1" points="91.31 26.43 91.31 35.01 90.94 35.01 90.94 26.31 90.74 26.25 90.74 35.01 90.64 35.01 90.64 35.16 91.74 35.14 91.74 26.56 91.31 26.43"></polygon><path class="logo-tagless1" d="M79.52,21.66c-2.74.89-5.52,1.71-8.22,2.67l-7.91,2.59.29-.58,4.23-1.4,11.54-3.83h.07Z"></path><path class="logo-tagless2" d="M143.24,41.8a5.93,5.93,0,0,0-.15-5.86c-.82-1.26-2.6-2.77-6.4-2.77a16.89,16.89,0,0,0-3.77.41H119.61l-.54,1.23a13.07,13.07,0,0,0-6.94-1.64h0a20.67,20.67,0,0,0-7.17,1.27l3-6.76H94.49l-2.62,5.9H84.55a12,12,0,0,0-3.28-.41,12.81,12.81,0,0,0-3.17.41H67.93a11.73,11.73,0,0,0-3.3-.42,12.38,12.38,0,0,0-4,.66l.11-.24h0l2.61-5.91H35.22l-4.31,5.87,1-5.87H14.08L9.36,37.76h2.22l-2.93,6.6H6.55L2.37,53.78H27.63l1.11-1.42a8,8,0,0,0,1,3.08C31.36,58.54,35,60.75,40.36,62a27.58,27.58,0,0,0,6.27.71h0c3.82,0,9.11-.88,11.47-3.37a8.39,8.39,0,0,0,2.65-5.25c.51,0,1.06.09,1.67.09a12.34,12.34,0,0,0,3.16-.42H75.67a12.26,12.26,0,0,0,3.39.42,12.4,12.4,0,0,0,3.16-.42h16l.52-1.18a13.18,13.18,0,0,0,6.8,1.56h.27a21,21,0,0,0,5-.66l-.13.28h29.09l4.1-9.24H142Z"></path><path class="logo-tagless1" d="M141.94,36.76c-.62-1-2-2.09-5.15-2.09a14.76,14.76,0,0,0-4.71.74l.14-.32H120.68l-.93,2.11c-1.19-1.29-3.4-2.53-7.52-2.53h0a18.48,18.48,0,0,0-10.24,3l1.14-2.58h0l2.62-5.91H95.56l-2.62,5.91H85.43l-.16.34a8.61,8.61,0,0,0-3.9-.76,11,11,0,0,0-5.09,1.27l.38-.85H68.79l-.15.34a8.69,8.69,0,0,0-3.91-.76,10.74,10.74,0,0,0-7.24,2.79l1-2.37h0l2.61-5.91H36.08L28.51,39.49l1.7-10.31H15.14l-3.32,7.08H14l-4.25,9.6H7.62L4.78,52.29H17.69l.78-1.75-.18,1.75H27L32.71,45l-2.13,4.86,0,0a6.19,6.19,0,0,0,.55,4.84c1.46,2.71,4.72,4.67,9.69,5.84a26.36,26.36,0,0,0,5.93.67h0c4.57,0,8.74-1.17,10.38-2.91,1.81-1.91,2.53-3.71,2.15-5.35a3.48,3.48,0,0,0-.31-.84,9.63,9.63,0,0,0,3.57.56,11.19,11.19,0,0,0,4.85-1.14l-.32.72h8l.14-.3a8.82,8.82,0,0,0,3.92.72,11.15,11.15,0,0,0,4.35-.91l-.22.49h14l.9-2c1.22,1.24,3.42,2.41,7.39,2.41h.25a18.67,18.67,0,0,0,7.84-1.77l-.61,1.38h25.81L141.65,46h-1.82L142,41.2a4.45,4.45,0,0,0,0-4.44M88.54,43h.91L89,44a3.77,3.77,0,0,0-.31-.85,2.39,2.39,0,0,0-.13-.21M49.4,53.78s0,0,0,0a4.77,4.77,0,0,1-2.23.34,20.68,20.68,0,0,1-4.68-.61,3.83,3.83,0,0,1-2.24-1.27H48l-.09.68a3.69,3.69,0,0,1,1.48.81M41.89,46l2-4.7h1.67L43.53,46Zm13.67-1.78H54.47l.59-1.33A3.28,3.28,0,0,0,55.41,44l.15.26m51.54,0c.33-.74,1.56-3.18,3.51-3.18h0a1.46,1.46,0,0,1,.43,0,3.9,3.9,0,0,1-.5,1.9c-1,2.25-1.84,3.13-3.13,3.25l-.3,0a1.08,1.08,0,0,1-.46-.07,3.11,3.11,0,0,1,.42-2m22.41-1.6a2.36,2.36,0,0,1,2.22-1.29L129.67,46H128ZM19,45.86h-.66l.86-1.94Z"></path><path class="logo-tagless3" d="M136.79,36.2c-2.87,0-6,.83-8.07,3.2h-.07l1.24-2.79h-8.21l-1.42,3.21h2l-3.43,7.74h-2l-1.42,3.21h10.39l1.42-3.21h-1.52l2.43-5.49a3.88,3.88,0,0,1,3.63-2.19c1.52,0,1.92.89,1.39,2.1l-2.48,5.58H129l-1.42,3.21h10.32l1.42-3.21h-1.82l3.1-7c1.23-2.79-.27-4.39-3.8-4.39"></path><path class="logo-tagless3" d="M56.09,51.51H48.35s3.78,1.12,2.23,3.26c-.95,1.32-5.28,1.07-8.48.28-4.5-1.13-3.78-4.64-3.78-4.64l6.85-15.66h2.1l1.89-4H36.85L26.06,45.4H26l2.43-14.69H16.1l-1.88,4h2.1l-5.6,12.64H8.61L7.12,50.77h9.59l1.49-3.38H16l5.6-12.64h.08L20,50.77h6.28l12.55-16h.07L32,50.42s-2.19,6,9.16,8.67c6.44,1.51,13.09.07,14.86-1.79,4.07-4.3.08-5.79.08-5.79"></path><polygon class="logo-tagless3" points="58.82 30.71 51.99 30.71 50.04 35.1 56.87 35.1 58.82 30.71"></polygon><polygon class="logo-tagless3" points="47.34 36.62 45.91 39.82 47.95 39.82 44.52 47.56 42.48 47.56 41.06 50.77 51.74 50.77 53.16 47.56 51.35 47.56 56.2 36.62 47.34 36.62"></polygon><path class="logo-tagless3" d="M63.44,40.27a2.27,2.27,0,0,1,2.29-1.16c1.6,0,2,1.1,1.4,2.34h5.05l2.14-4.84H69.78l-.67,1.52H69c-.21-1.52-2.49-1.93-4.31-1.93-3.31,0-6.58,1.81-7.8,4.57C54.35,46.59,65.3,44.09,64,47a2.83,2.83,0,0,1-2.49,1.28c-1.71,0-2.18-1.22-1.58-2.5H55l-2.21,5h4.73l.68-1.54h.07c.08,1.45,2,2,4.29,2,3.31,0,6.75-1.87,8-4.66,2.6-5.88-8.2-3.71-7.07-6.26"></path><path class="logo-tagless3" d="M87.15,46.53c2.6-5.88-8.21-3.71-7.07-6.26a2.27,2.27,0,0,1,2.29-1.16c1.6,0,1.95,1.1,1.39,2.34h5L91,36.61H86.42l-.67,1.52h-.08c-.2-1.52-2.48-1.93-4.3-1.93-3.31,0-6.58,1.81-7.8,4.57C71,46.59,81.94,44.09,80.65,47a2.83,2.83,0,0,1-2.49,1.28c-1.71,0-2.19-1.22-1.58-2.5h-5l-2.21,5h4.73l.68-1.54h.07c.08,1.45,2,2,4.29,2,3.31,0,6.75-1.88,8-4.66"></path><polygon class="logo-tagless3" points="103.38 30.71 96.55 30.71 94.61 35.1 101.44 35.1 103.38 30.71"></polygon><polygon class="logo-tagless3" points="100.77 36.61 91.9 36.61 90.48 39.82 92.52 39.82 89.08 47.56 87.05 47.56 85.63 50.77 96.31 50.77 97.73 47.56 95.91 47.56 100.77 36.61"></polygon><path class="logo-tagless3" d="M119.12,43.68c1.83-4.13-.47-7.49-6.92-7.48s-11.7,3.35-13.52,7.48.51,7.55,7.14,7.47c6.79-.08,11.65-3.74,13.3-7.47m-7.15,0c-.88,2-2,3.93-4.39,4.15-2.79.26-2.87-1.9-1.87-4.15s2.72-4.13,5-4.1,2.3,1.84,1.3,4.1"></path><path class="logo-tagless1" d="M62.29,46.83c0,.28-.34.51-.77.51s-.76-.23-.76-.51.34-.52.76-.52.77.23.77.52"></path><path class="logo-tagless1" d="M78.91,46.83c0,.28-.34.51-.76.51s-.76-.23-.76-.51.34-.52.76-.52.76.23.76.52"></path><path class="logo-tagless2" d="M146.28,51.74a1.93,1.93,0,1,1-1.87-1.93,1.9,1.9,0,0,1,1.87,1.93m-3.38-.09a1.46,1.46,0,0,0,1.43,1.54,1.44,1.44,0,0,0,1.47-1.45,1.45,1.45,0,1,0-2.9-.09m1.13,1-.43,0,.05-1.87a4.51,4.51,0,0,1,.72,0,1,1,0,0,1,.63.16.49.49,0,0,1,.19.41.5.5,0,0,1-.4.44v0c.18.06.27.21.32.47a2,2,0,0,0,.12.46l-.45,0a1.31,1.31,0,0,1-.14-.46c0-.19-.14-.29-.38-.29h-.21Zm0-1.06h.21c.24,0,.43-.07.44-.26s-.12-.29-.39-.3a1.1,1.1,0,0,0-.24,0Z"></path></svg>